<svg width="30" height="30" viewBox="0 0 30 30" fill="none" xmlns="http://www.w3.org/2000/svg">
<path d="M15.0111 0.000122082C15.0706 0.00024795 15.13 0.000373818 15.1912 0.000503501C16.0441 0.00340444 16.8809 0.0180577 17.7186 0.193584C17.7755 0.205187 17.8324 0.21679 17.8911 0.228745C20.1713 0.705909 22.2986 1.6185 24.1406 3.05535C24.1923 3.09465 24.2439 3.13395 24.2971 3.17444C25.2071 3.88118 26.0609 4.71625 26.7678 5.62511C26.8131 5.68112 26.8584 5.73713 26.9051 5.79484C28.9211 8.33019 30.0045 11.55 29.9973 14.7785C29.9971 14.9502 29.9985 15.1218 29.9999 15.2935C30.0025 16.0745 29.9322 16.8277 29.8037 17.5978C29.7872 17.6974 29.7872 17.6974 29.7704 17.799C29.3602 20.0833 28.3688 22.2549 26.943 24.0806C26.8986 24.1374 26.8543 24.1941 26.8086 24.2526C26.0885 25.1508 25.2828 26.0008 24.3742 26.7088C24.3195 26.7534 24.2649 26.798 24.2086 26.844C22.3431 28.3384 20.0565 29.3026 17.7186 29.7457C17.6714 29.7553 17.6241 29.7649 17.5754 29.7747C15.8215 30.1176 13.799 30.0537 12.0555 29.6873C11.9666 29.669 11.9666 29.669 11.8759 29.6503C9.70739 29.1894 7.67196 28.2489 5.92543 26.884C5.86869 26.8396 5.81194 26.7953 5.75348 26.7496C4.85559 26.0292 4.00597 25.2232 3.29824 24.3142C3.2313 24.2322 3.2313 24.2322 3.163 24.1486C1.66919 22.2824 0.705318 19.995 0.262374 17.6562C0.252817 17.6089 0.243259 17.5617 0.233411 17.513C-0.0859152 15.8785 -0.0788556 13.9129 0.262374 12.2831C0.273974 12.2262 0.285573 12.1692 0.297523 12.1106C0.886421 9.2943 2.17298 6.68952 4.18669 4.62227C4.29027 4.51592 4.39289 4.40871 4.49553 4.30145C4.91013 3.87277 5.34298 3.4891 5.82127 3.13309C5.92711 3.0541 6.03188 2.97383 6.13661 2.89338C6.6274 2.52037 7.13775 2.19672 7.6753 1.89541C7.78406 1.83427 7.89196 1.77183 7.99982 1.70911C10.1366 0.507917 12.5802 -0.00913786 15.0111 0.000122082Z" fill="#4D81E7"/>
<path d="M15.033 0.0183105C18.3539 0.0183105 21.5051 0.999439 24.1406 3.05529C24.1922 3.09459 24.2439 3.13389 24.2971 3.17438C25.2071 3.88112 26.0609 4.71619 26.7678 5.62504C26.8131 5.68106 26.8584 5.73707 26.9051 5.79478C28.9211 8.33013 30.0044 11.55 29.9973 14.7785C29.9971 14.9501 29.9984 15.1218 29.9999 15.2934C30.0025 16.0745 29.9321 16.8277 29.8037 17.5978C29.7927 17.6642 29.7817 17.7306 29.7704 17.799C29.3602 20.0832 28.3687 22.2548 26.943 24.0805C26.8986 24.1373 26.8543 24.1941 26.8086 24.2526C26.0885 25.1508 25.2828 26.0007 24.3741 26.7087C24.3195 26.7533 24.2649 26.798 24.2086 26.844C22.1664 28.4799 19.6283 29.4834 17.0508 29.8515C17.003 29.8588 16.9552 29.866 16.9059 29.8735C16.2787 29.9541 15.6749 29.9209 15.033 29.9209C15.033 26.4324 15.033 22.944 15.033 19.3499C16.6706 19.3306 18.3083 19.3113 19.9955 19.2915C20.419 19.009 20.5177 18.8435 20.6168 18.3697C20.6271 18.3177 20.6374 18.2657 20.648 18.2121C20.6594 18.1567 20.6708 18.1013 20.6826 18.0442C20.7201 17.8613 20.7568 17.6782 20.7935 17.4951C20.8194 17.3674 20.8453 17.2397 20.8712 17.1121C20.9255 16.8444 20.9794 16.5766 21.033 16.3088C21.1015 15.9667 21.1711 15.6249 21.2409 15.2831C21.2947 15.0194 21.3479 14.7555 21.4009 14.4916C21.4263 14.3656 21.4519 14.2396 21.4777 14.1137C21.5138 13.9369 21.5491 13.7599 21.5842 13.5829C21.5948 13.5316 21.6055 13.4803 21.6164 13.4275C21.6994 13.0015 21.7832 12.5377 21.5901 12.137C21.3746 11.904 21.2225 11.8064 20.9042 11.7917C20.5158 11.797 20.222 11.9577 19.8837 12.1352C19.7878 12.1838 19.7878 12.1838 19.6899 12.2334C19.4871 12.3365 19.2852 12.4411 19.0833 12.5459C18.9454 12.6163 18.8074 12.6866 18.6694 12.7569C18.3323 12.9287 17.996 13.1018 17.6602 13.2759C17.4936 13.1117 17.3321 12.9477 17.1836 12.7669C17.1346 12.7074 17.1346 12.7074 17.0846 12.6467C17.0506 12.605 17.0166 12.5633 16.9815 12.5203C16.9458 12.4768 16.9102 12.4333 16.8734 12.3885C16.6459 12.1101 16.4221 11.829 16.2007 11.5457C16.1742 11.5121 16.1478 11.4785 16.1205 11.4439C16.015 11.3099 15.9105 11.1757 15.8098 11.0381C15.5684 10.7221 15.4665 10.7339 15.033 10.5893C15.033 7.1009 15.033 3.61246 15.033 0.0183105Z" fill="#4D81E7"/>
<path d="M15.033 0.0183105C18.3539 0.0183105 21.5051 0.999439 24.1406 3.05529C24.1922 3.09459 24.2439 3.13389 24.2971 3.17438C25.2071 3.88112 26.0609 4.71619 26.7678 5.62504C26.8131 5.68106 26.8584 5.73707 26.9051 5.79478C28.9211 8.33013 30.0044 11.55 29.9973 14.7785C29.9971 14.9501 29.9984 15.1218 29.9999 15.2934C30.0025 16.0745 29.9321 16.8277 29.8037 17.5978C29.7927 17.6642 29.7817 17.7306 29.7704 17.799C29.3602 20.0832 28.3687 22.2548 26.943 24.0805C26.8986 24.1373 26.8543 24.1941 26.8086 24.2526C26.0885 25.1508 25.2828 26.0007 24.3741 26.7087C24.3195 26.7533 24.2649 26.798 24.2086 26.844C22.1664 28.4799 19.6283 29.4834 17.0508 29.8515C17.003 29.8588 16.9552 29.866 16.9059 29.8735C16.2787 29.9541 15.6749 29.9209 15.033 29.9209C15.033 28.7452 15.033 27.5696 15.033 26.3583C15.3052 26.3354 15.5773 26.3125 15.8577 26.2889C18.6632 26.028 21.0583 24.9103 23.0897 22.9709C23.1279 22.9358 23.1661 22.9007 23.2054 22.8646C24.544 21.5986 25.4261 19.8052 25.9505 18.065C25.967 18.0117 25.9836 17.9584 26.0006 17.9035C26.0951 17.5815 26.1608 17.256 26.2205 16.9261C26.2313 16.8669 26.2313 16.8669 26.2423 16.8065C26.6064 14.6959 26.3131 12.4961 25.4834 10.5309C25.4589 10.4724 25.4589 10.4724 25.4338 10.4128C24.8668 9.0856 24.0232 7.94736 23.0314 6.90992C22.9942 6.87032 22.957 6.83072 22.9187 6.78992C20.8311 4.62158 17.9356 3.81321 15.033 3.58092C15.033 2.40526 15.033 1.2296 15.033 0.0183105Z" fill="#1D61E7"/>
<path d="M15.033 0.018457C15.033 1.19412 15.033 2.36978 15.033 3.58107C14.5417 3.60998 14.5417 3.60998 14.0405 3.63947C12.8513 3.75734 11.6973 4.0502 10.596 4.51552C10.557 4.5319 10.518 4.54827 10.4779 4.56514C9.15119 5.13232 8.01336 5.97626 6.97631 6.96847C6.93672 7.00566 6.89714 7.04285 6.85635 7.08117C4.95816 8.91005 3.76454 11.7573 3.69209 14.3777C3.64785 17.4977 4.60562 20.4947 6.79101 22.7832C6.89092 22.8855 6.99172 22.9869 7.09307 23.0878C7.12397 23.1189 7.15486 23.1499 7.18669 23.1819C8.846 24.8336 11.1222 25.8837 13.4239 26.2234C13.4704 26.2303 13.5169 26.2373 13.5648 26.2445C14.0553 26.3119 14.5342 26.3291 15.033 26.3584C15.033 27.5341 15.033 28.7097 15.033 29.921C13.4694 29.921 13.4694 29.921 12.8765 29.8261C12.8084 29.8157 12.7402 29.8052 12.67 29.7945C10.2094 29.3989 7.89116 28.4203 5.92543 26.8841C5.86869 26.8397 5.81194 26.7954 5.75348 26.7497C4.85559 26.0293 4.00597 25.2233 3.29824 24.3143C3.2313 24.2323 3.2313 24.2323 3.163 24.1487C1.66919 22.2825 0.705318 19.9951 0.262374 17.6563C0.252817 17.609 0.243259 17.5618 0.233411 17.5131C-0.0859152 15.8786 -0.0788556 13.913 0.262374 12.2832C0.273973 12.2263 0.285573 12.1693 0.297523 12.1107C0.886421 9.29438 2.17298 6.6896 4.18669 4.62235C4.29027 4.516 4.39289 4.40879 4.49553 4.30153C4.91013 3.87286 5.34298 3.48919 5.82127 3.13318C5.92711 3.05419 6.03188 2.97391 6.13661 2.89346C6.6274 2.52045 7.13775 2.19681 7.6753 1.8955C7.78406 1.83436 7.89196 1.77192 7.99982 1.70919C9.43999 0.89961 11.0726 0.402283 12.6977 0.135264C12.739 0.128422 12.7802 0.121581 12.8227 0.114532C13.5662 -0.0034802 14.2705 0.018457 15.033 0.018457Z" fill="#3570E5"/>
<path d="M15.033 10.5894C15.6866 10.6828 15.9358 11.0911 16.3149 11.5859C16.5316 11.8684 16.7575 12.1433 16.9835 12.4184C17.197 12.6795 17.4015 12.9462 17.6018 13.2175C17.7479 13.1497 17.8939 13.0815 18.0397 13.0131C18.0874 12.9908 18.1351 12.9685 18.1843 12.9456C18.5201 12.787 18.8509 12.6204 19.1802 12.4489C19.3047 12.3846 19.4293 12.3204 19.5538 12.2563C19.6361 12.2136 19.7181 12.1705 19.7999 12.1269C20.6855 11.6557 20.6855 11.6557 21.1631 11.7574C21.4458 11.8936 21.6129 12.0577 21.747 12.3415C21.7861 12.7636 21.7285 13.1695 21.6435 13.582C21.627 13.6659 21.627 13.6659 21.6101 13.7515C21.5739 13.9342 21.5369 14.1166 21.4997 14.2991C21.4741 14.427 21.4485 14.5549 21.4229 14.6827C21.3693 14.9497 21.3153 15.2166 21.2609 15.4834C21.1914 15.825 21.1231 16.1668 21.0552 16.5087C21.0027 16.7724 20.9494 17.036 20.8959 17.2995C20.8705 17.4255 20.8452 17.5515 20.8202 17.6776C20.7853 17.8537 20.7493 18.0296 20.713 18.2055C20.7029 18.2573 20.6929 18.3091 20.6825 18.3624C20.6029 18.7404 20.4865 18.9948 20.187 19.2533C19.9528 19.3714 19.7564 19.3812 19.5002 19.3764C19.451 19.3764 19.4017 19.3765 19.351 19.3765C19.1926 19.3763 19.0342 19.3745 18.8757 19.3727C18.7776 19.3723 18.6794 19.3721 18.5812 19.372C18.2182 19.3708 17.8553 19.3675 17.4924 19.3645C16.6808 19.3597 15.8692 19.3548 15.033 19.3499C15.033 16.4589 15.033 13.5679 15.033 10.5894Z" fill="#1D61E7"/>
<path d="M15.033 10.5894C15.033 13.4803 15.033 16.3713 15.033 19.3499C14.2335 19.3559 13.4339 19.3619 12.6102 19.3681C12.3584 19.3708 12.1066 19.3734 11.8472 19.3762C11.538 19.3775 11.538 19.3775 11.393 19.3777C11.2924 19.3782 11.1918 19.3792 11.0912 19.3807C10.9381 19.3829 10.7852 19.3831 10.6321 19.383C10.5879 19.3841 10.5436 19.3851 10.498 19.3862C10.1608 19.383 9.91314 19.2868 9.66188 19.0579C9.48541 18.7546 9.42722 18.4195 9.35967 18.0783C9.34825 18.0225 9.33684 17.9668 9.32508 17.9093C9.28768 17.7258 9.25093 17.5423 9.21421 17.3587C9.18831 17.2306 9.16238 17.1025 9.13643 16.9745C9.08222 16.7065 9.02832 16.4384 8.97465 16.1703C8.90593 15.8271 8.83646 15.4841 8.76675 15.1411C8.71311 14.8768 8.65987 14.6125 8.60673 14.3481C8.58127 14.2216 8.55569 14.0951 8.52999 13.9686C8.4941 13.7917 8.45874 13.6148 8.4235 13.4378C8.41286 13.3858 8.40222 13.3339 8.39125 13.2803C8.30239 12.829 8.26532 12.468 8.49424 12.0494C8.70195 11.8521 8.85687 11.7679 9.14374 11.7392C9.43611 11.7628 9.63451 11.8625 9.89541 11.991C9.96915 12.0256 10.043 12.0599 10.1169 12.0942C10.5796 12.3089 11.0377 12.5316 11.4931 12.7615C11.8128 12.9224 12.1366 13.0731 12.4642 13.2175C12.7915 12.8363 13.1146 12.4528 13.4239 12.0567C13.4629 12.0068 13.4629 12.0068 13.5028 11.9559C13.6156 11.8115 13.7282 11.667 13.8403 11.5221C13.9334 11.4019 14.027 11.2821 14.1208 11.1624C14.1493 11.1253 14.1778 11.0882 14.2071 11.0499C14.4537 10.7367 14.6145 10.5894 15.033 10.5894Z" fill="#3571E5"/>
</svg>
