<svg width="12" height="13" viewBox="0 0 12 13" fill="none" xmlns="http://www.w3.org/2000/svg">
<path d="M11.9996 9.48431V11.2908C12.0003 11.4585 11.9659 11.6245 11.8986 11.7781C11.8313 11.9318 11.7325 12.0697 11.6087 12.1831C11.4849 12.2965 11.3387 12.3828 11.1795 12.4365C11.0203 12.4903 10.8517 12.5102 10.6843 12.4951C8.82768 12.2938 7.04426 11.6606 5.47734 10.6465C4.01953 9.72196 2.78356 8.48843 1.8572 7.03351C0.837516 5.46259 0.202945 3.67405 0.00489727 1.81277C-0.0101803 1.64625 0.00964865 1.47843 0.0631214 1.31998C0.116594 1.16153 0.202539 1.01592 0.315485 0.892439C0.42843 0.768955 0.565901 0.670295 0.719145 0.60274C0.87239 0.535185 1.03805 0.500216 1.20558 0.500058H3.01565C3.30846 0.497182 3.59233 0.600667 3.81435 0.791223C4.03636 0.981779 4.18138 1.24641 4.22236 1.53578C4.29876 2.11389 4.44044 2.68152 4.64471 3.22785C4.72589 3.44338 4.74346 3.67761 4.69534 3.9028C4.64721 4.12799 4.53542 4.33469 4.3732 4.49841L3.60694 5.26315C4.46585 6.77069 5.71655 8.01891 7.22708 8.87612L7.99334 8.11138C8.15739 7.94948 8.3645 7.83791 8.59013 7.78988C8.81577 7.74185 9.05047 7.75939 9.26642 7.8404C9.81383 8.04427 10.3826 8.18567 10.9619 8.26192C11.2549 8.30318 11.5226 8.45052 11.714 8.6759C11.9053 8.90128 12.007 9.18899 11.9996 9.48431Z" fill="white"/>
</svg>
