<svg width="12" height="11" viewBox="0 0 12 11" fill="none" xmlns="http://www.w3.org/2000/svg">
<path d="M10.7776 3.51081V0.5H7.76086" stroke="#34C759" stroke-linecap="round" stroke-linejoin="round"/>
<path d="M7.76086 3.51081L10.7776 0.5" stroke="#34C759" stroke-linecap="round" stroke-linejoin="round"/>
<path d="M10.7775 7.98692V9.49232C10.7781 9.63208 10.7494 9.77041 10.6933 9.89846C10.6372 10.0265 10.5549 10.1414 10.4517 10.2359C10.3486 10.3304 10.2267 10.4023 10.0941 10.4471C9.96144 10.4919 9.82089 10.5085 9.68142 10.4959C8.13423 10.3281 6.64805 9.8005 5.34228 8.9554C4.12744 8.18496 3.09746 7.15703 2.3255 5.94459C1.47576 4.63549 0.946953 3.14504 0.781913 1.59397C0.769348 1.45521 0.785873 1.31536 0.830433 1.18331C0.874994 1.05127 0.946615 0.929936 1.04074 0.827033C1.13486 0.724129 1.24942 0.641913 1.37712 0.585617C1.50482 0.529321 1.64287 0.50018 1.78248 0.500049H3.29087C3.53488 0.497652 3.77144 0.583889 3.95646 0.742686C4.14147 0.901483 4.26231 1.122 4.29647 1.36315C4.36013 1.84491 4.4782 2.31794 4.64842 2.77321C4.71607 2.95281 4.73071 3.14801 4.69061 3.33567C4.65051 3.52332 4.55735 3.69557 4.42217 3.83201L3.78361 4.46929C4.49937 5.72558 5.54162 6.76576 6.8004 7.4801L7.43895 6.84281C7.57565 6.7079 7.74825 6.61492 7.93628 6.5749C8.1243 6.53488 8.31989 6.54949 8.49985 6.617C8.95602 6.78689 9.42999 6.90473 9.91271 6.96826C10.157 7.00265 10.38 7.12543 10.5395 7.31325C10.6989 7.50107 10.7836 7.74083 10.7775 7.98692Z" stroke="#34C759" stroke-linecap="round" stroke-linejoin="round"/>
</svg>
