<svg width="22" height="23" viewBox="0 0 22 23" fill="none" xmlns="http://www.w3.org/2000/svg">
<circle cx="11" cy="11.5" r="11" fill="#FBD760"/>
<circle cx="11.203" cy="11.7025" r="10.1029" fill="url(#paint0_linear_42_1612)"/>
<path d="M10.072 5.56085C10.4079 4.72438 11.5921 4.72438 11.928 5.56085L12.8997 7.98068C13.0428 8.33689 13.3771 8.57978 13.76 8.60574L16.3617 8.78215C17.261 8.84313 17.627 9.96931 16.9352 10.5473L14.9341 12.2192C14.6396 12.4653 14.5119 12.8583 14.6055 13.2306L15.2417 15.7594C15.4616 16.6336 14.5036 17.3296 13.7402 16.8503L11.5317 15.4638C11.2066 15.2597 10.7934 15.2597 10.4683 15.4638L8.2598 16.8503C7.49639 17.3296 6.5384 16.6336 6.75831 15.7594L7.3945 13.2306C7.48815 12.8583 7.36046 12.4653 7.06589 12.2192L5.06477 10.5473C4.37304 9.96931 4.73896 8.84313 5.63829 8.78215L8.23997 8.60574C8.62294 8.57978 8.95725 8.33689 9.1003 7.98068L10.072 5.56085Z" fill="#FBD760"/>
<defs>
<linearGradient id="paint0_linear_42_1612" x1="11.203" y1="1.59961" x2="11.203" y2="21.8054" gradientUnits="userSpaceOnUse">
<stop stop-color="#F9AC1E"/>
<stop offset="1" stop-color="#FF8800"/>
</linearGradient>
</defs>
</svg>
